<?xml version="1.0" encoding="utf8" standalone="no"?>
<svg viewBox="0 0 1063.5955 1306.0063" xml:space="preserve" xmlns="http://www.w3.org/2000/svg" xmlns:xlink="http://www.w3.org/1999/xlink"><defs><filter height="2.1052" id="filter6253-8-2-4" width="1.03721" x="-.01861" y="-.5526"><feGaussianBlur stdDeviation="2.65814"></feGaussianBlur></filter><linearGradient id="linearGradient5378"><stop offset="0" stop-color="#686a6e"></stop><stop offset=".5" stop-color="#686a6e"></stop><stop offset="1" stop-color="#686a6e" stop-opacity="0"></stop></linearGradient><linearGradient gradientUnits="userSpaceOnUse" id="linearGradient5605" x1="1375.422" x2="663.89581" y1="-210.53049" y2="976.08313"><stop offset="0" stop-color="#282c32"></stop><stop offset="1"></stop></linearGradient><linearGradient gradientUnits="userSpaceOnUse" id="linearGradient5623" x1="1379.4375" x2="1157.5625" y1="52.28125" y2="261.53125"><stop offset="0" stop-color="#595b5e"></stop><stop offset=".5" stop-color="#595b5e"></stop><stop offset="1" stop-color="#595b5e" stop-opacity="0"></stop></linearGradient><linearGradient gradientUnits="userSpaceOnUse" id="linearGradient5648" x2="0" y1="625.30121" y2="695.09711"><stop offset="0" stop-color="#151515"></stop><stop offset=".60526" stop-color="#151515"></stop><stop offset=".81579" stop-color="#525252"></stop><stop offset="1" stop-color="#919192"></stop></linearGradient><linearGradient id="linearGradient5900-2-2-7-5"><stop offset="0" stop-color="#262a2d"></stop><stop offset=".12389" stop-color="#606567"></stop><stop offset=".2677" stop-color="#262a2d"></stop><stop offset="1" stop-color="#262a2d"></stop></linearGradient><linearGradient gradientUnits="userSpaceOnUse" id="linearGradient5848" x2="0" y1="180.00515" y2="207.00149"><stop offset="0" stop-color="#262a2d"></stop><stop offset=".08591" stop-color="#606567"></stop><stop offset=".20801" stop-color="#262a2d"></stop><stop offset="1" stop-color="#262a2d"></stop></linearGradient><linearGradient gradientUnits="userSpaceOnUse" id="linearGradient6174-5-6-6" x2="0" xlink:href="#linearGradient5900-2-2-7-5" y1="130.10281" y2="150.19535"></linearGradient><linearGradient gradientUnits="userSpaceOnUse" id="linearGradient5776" x2="0" xlink:href="#linearGradient5900-2-2-7-5" y1="69.9596" y2="85.27255"></linearGradient><radialGradient cx="1467.7728" cy="158.66927" gradientTransform="matrix(-1.88188,-1.4896875e-7,3.95982e-7,-5.00232,4229.9431,749.9832)" gradientUnits="userSpaceOnUse" id="radialGradient5464" r="136.5625"><stop offset="0" stop-color="#b0b0b2"></stop><stop offset=".5" stop-color="#b0b0b2"></stop><stop offset="1" stop-color="#b0b0b2" stop-opacity="0"></stop></radialGradient><radialGradient cx="1459.5582" cy="-208.54828" gradientTransform="matrix(-1.8321,0,0,-.44989,4133.6198,-148.91176)" gradientUnits="userSpaceOnUse" id="radialGradient5513" r="258.06482"><stop offset="0" stop-color="#5d5e61"></stop><stop offset=".2523" stop-color="#5d5e61"></stop><stop offset="1" stop-color="#5d5e61" stop-opacity="0"></stop></radialGradient><radialGradient cx="2509.4014" cy="86.45891" gradientTransform="matrix(-1.42317,0,0,-1.02006,5040.7175,35.72174)" gradientUnits="userSpaceOnUse" id="radialGradient5548" r="480.99509"><stop offset="0" stop-color="#4e4f51"></stop><stop offset=".21944" stop-color="#4e4f51"></stop><stop offset="1"></stop></radialGradient><radialGradient cx="486.3223" cy="-50.61325" gradientTransform="matrix(-.00324,1.34439,-1.96323,-.00474,420.6395,-710.18702)" gradientUnits="userSpaceOnUse" id="radialGradient5384" r="33.14063" xlink:href="#linearGradient5378"></radialGradient><radialGradient cx="1465.8906" cy="1184.6857" gradientTransform="matrix(8.2939826e-7,-1.33992,1.22738,7.5973672e-7,11.8355,3149.0748)" gradientUnits="userSpaceOnUse" id="radialGradient5400" r="33.1562" xlink:href="#linearGradient5378"></radialGradient><radialGradient cx="513.125" cy="1183.7839" gradientTransform="matrix(1.27115,1.6299351e-6,-1.7113401e-6,1.33464,-138.8835,-396.58175)" gradientUnits="userSpaceOnUse" id="radialGradient5408" r="33.14063" xlink:href="#linearGradient5378"></radialGradient></defs>

















































































































































































































































































































































































































































































































































































































































































































































































































































































































































































<g transform="translate(-456.60848,84.16626)"><path d="m184.35666,720.38641h20.94293a160.96585,5.7723 0 0,1 160.96585,5.7723 160.96585,5.7723 0 0,1 -160.96585,5.7723h-20.94293a160.96585,5.7723 0 0,1 -160.96585-5.7723 160.96585,5.7723 0 0,1 160.96585-5.7723" fill="#323232" filter="url(#filter6253-8-2-4)" transform="matrix(2.9907,0,0,1.26576,405.73282,287.31518)"></path><path d="m557.46881-68.4375c-35.65421,0-64.34381,28.68955-64.34381,64.34375v1143.46875c0,35.6542 28.6896,64.3438 64.34381,64.3438h865.96969c35.6543,0 64.375-28.6896 64.375-64.3438v-1143.46875c0-35.6542-28.7207-64.34375-64.375-64.34375h-865.96969zm3.59478,2.46875h860.43751c35.4937,0 64.0624,28.56873 64.0624,64.0625v1138.31245c0,35.4938-28.5687,64.0626-64.0624,64.0626h-862.09479c-35.49381,0-64.06251-28.5688-64.06251-64.0626l1.65728-1138.31245c0-35.49377 28.5687-64.0625 64.06251-64.0625z" fill="#dcdde0"></path><path d="m1488.4377,69.9596h-2.4423v15.14032h1.0357c.7311,0 1.4066-.81371 1.4066-2.11638v-13.02394z" fill="url(#linearGradient5776)"></path><path d="m1487.7458,130.10281h-1.7504v30.97559h1.2189c.2514-2.36269 1.6802-12.023 1.6802-14.54009v-15.88752c0-.30359-.5124-.54798-1.1487-.54798z" fill="url(#linearGradient6174-5-6-6)"></path><path d="m1487.7458,210.29715h-1.7504v-30.97559h1.2189c.2514,2.36269 1.6802,12.023 1.6802,14.54009v15.88752c0,.30359-.5124.54798-1.1487.54798z" fill="url(#linearGradient5848)"></path><path d="m1485.9954,130.10281v30.97559h1.1053v-30.97559h-1.1053z" fill="#393a3b"></path><path d="m1485.9954,179.32156v30.97559h1.1053v-30.97559h-1.1053z" fill="#444448"></path><path d="m1487.1007,69.95961h-1.1053v15.14032h1.1053v-15.14032z" fill="#353537"></path><path d="m559.41437-59.97581h860.43347a64.06818,64.06818 0 0,1 64.06818,64.06818v1138.31105a64.06818,64.06818 0 0,1 -64.06818,64.06818h-860.43347a64.06818,64.06818 0 0,1 -64.06818-64.06818v-1138.31105a64.06818,64.06818 0 0,1 64.06818-64.06818" fill-opacity=".24"></path><path d="m557.4688-68.4375c-35.6542,0-64.3438,28.68955-64.3438,64.34375v1143.46875c0,35.6542 28.6896,64.3438 64.3438,64.3438h864.3124c35.6543,0 64.375-28.6896 64.375-64.3438v-1143.46875c0-35.6542-28.7207-64.34375-64.375-64.34375h-864.3124zm1.9375,2.46875h860.4375c35.4937,0 64.0624,28.56873 64.0624,64.0625v1138.31245c0,35.4938-28.5687,64.0626-64.0624,64.0626h-860.4375c-35.4938,0-64.0625-28.5688-64.0625-64.0626v-1138.31245c0-35.49377 28.5687-64.0625 64.0625-64.0625z" fill="#989aa3"></path><path d="m559.4063-65.96875c-35.4938,0-64.0625,28.56873-64.0625,64.0625v1138.31245c0,35.4938 28.5687,64.0626 64.0625,64.0626h860.4375c35.4937,0 64.0624-28.5688 64.0624-64.0626v-1138.31245c0-35.49377-28.5687-64.0625-64.0624-64.0625h-860.4375zm1.2187,4.40625h858c33.7773,0 60.9687,27.1914 60.9688,60.96875v1133.43755c0,33.7773-27.1915,60.9687-60.9688,60.9687h-858c-33.7773,0-60.9687-27.1914-60.9687-60.9687v-1133.43755c0-33.77735 27.1914-60.96875 60.9687-60.96875z" fill="#eaeaec"></path><path d="m560.625-61.5625c-33.7773,0-60.9687,27.1914-60.9687,60.96875v1133.43755c0,14.9872 5.3743,28.6869 14.2812,39.2812-8.3061-10.4261-13.2812-23.6527-13.2812-38.0938v-1134.0312c0-33.79403 27.1352-61 60.8437-61h856.25c33.7085,0 60.8437,27.20597 60.8438,61v1134.0312c0,14.4865-4.9906,27.7464-13.3438,38.1876 8.9584-10.6084 14.3438-24.3397 14.3438-39.375v-1133.43755c-.0001-33.77735-27.1915-60.96875-60.9688-60.96875h-858z" fill-opacity=".24"></path><path d="m561.5-61c-33.7085,0-60.8437,27.20597-60.8437,61v1134.0312c0,33.7941 27.1352,61 60.8437,61h856.25c33.7085,0 60.8438-27.2059 60.8438-61v-1134.0312c-.0001-33.79403-27.1353-61-60.8438-61h-856.25z" fill="#232427"></path><path d="m561.5-61c-33.7085,0-60.8437,27.20597-60.8437,61v1134.0312c0,33.7941 27.1352,61 60.8437,61h857.3549c33.7085,0 60.8438-27.2059 60.8438-61v-1134.0312c-.0001-33.79403-25.2018-61-58.9103-61h-859.2884zm.75,1.3125h857.6322c33.6421,0 58.7852,27.17542 58.7852,60.90625v1131.87505c0,33.7308-27.0766,60.9062-60.7187,60.9062h-855.6987c-33.6421,0-60.7187-27.1754-60.7187-60.9062v-1131.87505c0-33.73083 27.0766-60.90625 60.7187-60.90625z" fill="#a6a7a7"></path><path d="m555.37175-52.47162h866.06893a47.96062,47.96062 0 0,1 47.96062,47.96062v1143.92996a47.96062,47.96062 0 0,1 -47.96062,47.96062h-866.06893a47.96062,47.96062 0 0,1 -47.96062-47.96062v-1143.92996a47.96062,47.96062 0 0,1 47.96062-47.96062" fill="url(#radialGradient5548)"></path><path d="m557.4688-68.4375c-35.6543,0-64.3438,28.68955-64.3438,64.34375l2.2188,2.1875c0-35.49377 28.5687-64.0625 64.0625-64.0625h24.084v-2.46875h-26.0215z" fill="url(#radialGradient5384)"></path><path d="m1419.8436-65.96875c35.4935,0 64.0625,28.56873 64.0624,64.0625v62.92077h2.25v-65.10827c0-35.6542-28.7207-64.34375-64.375-64.34375h-451.7546v2.46875h449.8174-.0002z" fill="url(#radialGradient5513)"></path><path d="m1483.9062,1136.4062c0,35.4938-28.5689,64.0625-64.0624,64.0626l1.9374,3.25c35.6543,0 64.3751-28.6896 64.375-64.3438l-2.25-2.9688z" fill="url(#radialGradient5400)"></path><path d="m493.125,1139.375c0,35.6542 28.6895,64.3438 64.3438,64.3438l1.9375-3.25c-35.4938,0-64.0625-28.5688-64.0625-64.0626l-2.2188,2.9688z" fill="url(#radialGradient5408)"></path><path d="m600.3906-84.16626z"></path><path d="m1210.7812-65.96875v4.40625h207.8438c33.7773,0 60.9687,27.1914 60.9688,60.96875v639.80097h4.3124v-641.11347c0-35.49377-28.5689-64.0625-64.0624-64.0625h-209.0626z" fill="url(#radialGradient5464)"></path><path d="m603.4375,52.28125v1030.99995h776v-1030.99995h-776zm4,3h768v1023.99995h-768v-1023.99995z" fill="url(#linearGradient5623)"></path><path d="m607.422,55.287h768v1024h-768z" fill="url(#linearGradient5605)"></path><path d="m229.38777,660.19916a34.89796,34.89796 0 1,1 -69.79592,0 34.89796,34.89796 0 1,1 69.79592,0z" fill="url(#linearGradient5648)" transform="matrix(.81811,0,0,.81811,832.5226,603.39001)"></path><path d="m1019.1848,1143.5043c0-15.2146-12.3339-27.5485-27.5485-27.5485s-27.5485,12.3339-27.5485,27.5485c0,2.6334.3694,5.1805 1.0594,7.5922 21.095,8.1265 36.7579,7.9647 52.9903-.043 .6822-2.3991 1.0473-4.9316 1.0473-7.5494z" fill="#070707"></path><path d="m986.1224,1132.9871c-2.4049,0-4.3462,1.9413-4.3462,4.3462v11.3513c0,2.4049 1.9413,4.3462 4.3462,4.3462h11.3512c2.4049,0 4.3462-1.9413 4.3462-4.3462v-11.3513c0-2.4049-1.9413-4.3462-4.3462-4.3462h-11.3512zm.3835,1.6619h10.5843c1.6957,0 3.0679,1.3721 3.0679,3.0679v10.5842c0,1.6957-1.3722,3.0423-3.0679,3.0423h-10.5843c-1.6958,0-3.0424-1.3466-3.0424-3.0423v-10.5842c0-1.6958 1.3466-3.0679 3.0424-3.0679z" fill="#ccced1"></path><path d="m1332.0325-71.93188h49.2631c.7581,0 1.3685.64593 1.3685,1.44828v1.55172h-52v-1.55172c0-.80234.6103-1.44828 1.3684-1.44828z" fill="#141414"></path><path d="m1332.0312-71.9375c-.7581,0-1.375.66641-1.375,1.46875v.09375c0,.15713.051.29605.094.4375 .178-.58086.6716-1 1.2812-1h49.25c.611,0 1.1356.41721 1.3126,1 .043-.14038.062-.28175.062-.4375v-.09375c0-.80234-.6168-1.46875-1.375-1.46875h-49.25z" fill="#404040"></path><path d="m1330.6562-68.93188v-1.5625c0-.15713.051-.29605.094-.4375 .178.58086.6716,1 1.2812,1h49.25c.611,0 1.1356-.41721 1.3126-1 .043.14038.062.28175.062.4375v1.5625h-50.625-1.3748z" fill="#404040"></path></g></svg>
